<?xml version="1.0" standalone="no"?>
<!DOCTYPE svg PUBLIC "-//W3C//DTD SVG 20010904//EN" "http://www.w3.org/TR/2001/REC-SVG-20010904/DTD/svg10.dtd">
<svg version="1.0" xmlns="http://www.w3.org/2000/svg"
    width="500.000000pt" height="500.000000pt" viewBox="0 0 500.000000 500.000000"
    preserveAspectRatio="xMidYMid meet">

    <g transform="translate(0.000000,500.000000) scale(0.100000,-0.100000)"
        fill="#000000" stroke="none">
        <path d="M1193 2833 c9 -2 23 -2 30 0 6 3 -1 5 -18 5 -16 0 -22 -2 -12 -5z" />
        <path
            d="M1099 2815 c-24 -13 -59 -68 -59 -93 0 -6 -8 -13 -17 -15 -17 -4 -17
-5 0 -6 12 -1 17 -10 18 -33 2 -31 2 -31 6 -5 3 18 9 25 16 20 7 -4 7 0 -1 10
-15 18 -9 61 13 90 7 11 31 25 52 32 21 8 29 14 18 14 -11 0 -32 -6 -46 -14z" />
        <path d="M1268 2823 c12 -2 30 -2 40 0 9 3 -1 5 -23 4 -22 0 -30 -2 -17 -4z" />
        <path
            d="M1353 2813 c22 -3 27 -9 22 -21 -16 -45 -160 -272 -172 -272 -8 0
-11 -4 -8 -10 3 -5 -12 -36 -33 -67 -93 -138 -111 -205 -56 -219 61 -16 154
21 234 93 50 45 116 130 108 139 -3 2 -22 -21 -43 -52 -66 -96 -162 -162 -251
-172 -79 -9 -69 37 47 213 84 128 148 234 188 313 l31 62 -47 -1 c-31 -1 -38
-3 -20 -6z" />
        <path d="M968 2713 c6 -2 18 -2 25 0 6 3 1 5 -13 5 -14 0 -19 -2 -12 -5z" />
        <path
            d="M910 2690 c-11 -11 -20 -26 -19 -32 0 -7 5 -3 11 8 5 12 20 27 32 32
11 6 15 11 9 11 -7 1 -22 -8 -33 -19z" />
        <path d="M1106 2648 c15 -20 30 -35 33 -32 3 2 -10 19 -28 37 l-34 32 29 -37z" />
        <path
            d="M1895 2625 c-16 -8 -37 -20 -45 -27 -26 -23 -70 -79 -70 -90 0 -6 16
10 36 35 34 43 103 88 135 87 32 -1 94 -31 206 -99 145 -87 213 -113 320 -119
77 -4 319 15 309 25 -2 3 -65 -1 -139 -8 -210 -19 -319 9 -524 137 -115 71
-171 86 -228 59z" />
        <path
            d="M1051 2619 c-1 -8 6 -24 15 -35 15 -19 15 -19 6 1 -5 11 -12 27 -15
35 -5 13 -6 13 -6 -1z" />
        <path d="M890 2606 c0 -8 4 -17 9 -20 5 -4 7 3 4 14 -6 23 -13 26 -13 6z" />
        <path d="M1141 2584 c0 -11 3 -14 6 -6 3 7 2 16 -1 19 -3 4 -6 -2 -5 -13z" />
        <path
            d="M1595 2543 c-10 -21 -33 -68 -52 -105 -18 -38 -31 -68 -28 -68 2 0
21 30 40 68 l35 67 -6 -75 c-6 -70 -9 -77 -45 -113 -46 -47 -83 -137 -74 -184
3 -18 10 -35 15 -38 5 -3 4 9 -2 26 -16 46 11 125 62 180 l40 44 -4 -35 c-22
-153 -29 -184 -52 -207 -15 -15 -18 -23 -9 -23 19 0 53 46 65 89 5 20 15 72
21 117 l12 81 68 53 c38 28 72 57 76 64 4 6 -22 -13 -59 -41 -36 -29 -69 -53
-73 -53 -9 0 0 146 11 173 13 35 -24 16 -41 -20z" />
        <path
            d="M3648 2570 c-157 -17 -801 -117 -760 -119 13 -1 96 10 185 24 609 92
889 102 1094 41 43 -12 84 -25 92 -27 7 -2 15 1 18 8 4 12 -82 43 -177 63 -71
16 -340 21 -452 10z" />
        <path
            d="M1469 2538 c-15 -28 -14 -120 1 -148 6 -12 13 -20 14 -18 2 1 6 45 9
96 6 92 -1 112 -24 70z" />
        <path d="M1293 2523 c15 -2 37 -2 50 0 12 2 0 4 -28 4 -27 0 -38 -2 -22 -4z" />
        <path d="M1058 2513 c7 -3 16 -2 19 1 4 3 -2 6 -13 5 -11 0 -14 -3 -6 -6z" />
        <path d="M1118 2503 c12 -2 30 -2 40 0 9 3 -1 5 -23 4 -22 0 -30 -2 -17 -4z" />
        <path d="M2813 2443 c9 -2 25 -2 35 0 9 3 1 5 -18 5 -19 0 -27 -2 -17 -5z" />
        <path
            d="M1843 2205 c2 -5 13 -11 25 -13 28 -4 28 -5 -8 -58 l-31 -44 51 0
c27 0 50 5 50 10 0 6 -16 10 -36 10 l-36 0 36 49 36 49 -45 4 c-27 2 -44 -1
-42 -7z" />
        <path
            d="M3003 2205 c2 -5 13 -11 25 -13 28 -4 28 -5 -8 -58 l-31 -44 51 0
c27 0 50 5 50 10 0 6 -16 10 -36 10 l-36 0 36 49 36 49 -45 4 c-27 2 -44 -1
-42 -7z" />
        <path
            d="M2000 2150 l0 -60 40 0 c22 0 40 5 40 10 0 6 -13 10 -30 10 -20 0
-30 5 -30 15 0 10 10 15 31 15 17 0 28 4 24 10 -3 6 -17 10 -31 10 -15 0 -24
6 -24 15 0 10 10 15 30 15 17 0 30 5 30 10 0 6 -18 10 -40 10 l-40 0 0 -60z" />
        <path
            d="M2163 2150 c0 -36 2 -53 4 -37 4 23 9 27 39 27 30 0 34 -3 34 -25 0
-14 5 -25 10 -25 6 0 10 24 10 54 0 30 -4 58 -10 61 -6 4 -10 -5 -10 -19 0
-23 -4 -26 -34 -26 -30 0 -35 4 -39 28 -2 15 -4 -2 -4 -38z" />
        <path
            d="M2330 2150 c0 -33 4 -60 10 -60 6 0 10 9 10 20 0 11 6 20 13 20 7 0
18 -9 25 -20 7 -11 17 -20 23 -20 6 0 4 9 -5 21 -11 16 -12 27 -4 45 14 31 -4
54 -43 54 -29 0 -29 -1 -29 -60z m58 23 c-5 -26 -38 -29 -38 -4 0 15 6 21 21
21 14 0 19 -5 17 -17z" />
        <path
            d="M2650 2152 c0 -35 4 -62 10 -62 6 0 10 19 10 42 l0 42 45 -44 45 -44
0 62 c0 35 -4 62 -10 62 -5 0 -10 -19 -10 -42 l0 -42 -45 44 -45 44 0 -62z" />
        <path
            d="M2852 2154 c-13 -31 -21 -59 -18 -62 3 -3 8 3 12 12 8 21 50 21 63
-1 5 -10 12 -15 16 -12 5 6 -39 119 -47 119 -2 0 -13 -25 -26 -56z m38 -10 c0
-8 -4 -14 -10 -14 -5 0 -10 9 -10 21 0 11 5 17 10 14 6 -3 10 -13 10 -21z" />
        <path
            d="M3276 2165 c14 -25 23 -52 20 -60 -3 -8 -1 -15 4 -15 6 0 10 8 10 18
0 9 11 36 25 60 16 28 20 42 11 42 -7 0 -19 -15 -28 -32 l-15 -33 -17 33 c-9
17 -21 32 -27 32 -5 0 2 -20 17 -45z" />
        <path
            d="M3437 2192 c-35 -39 -9 -102 41 -102 28 0 62 34 62 60 0 27 -35 60
-63 60 -13 0 -31 -8 -40 -18z m79 -27 c9 -38 -2 -55 -35 -55 -37 0 -57 30 -41
60 16 31 68 27 76 -5z" />
        <path
            d="M3610 2150 l0 -60 40 0 c22 0 40 5 40 10 0 6 -13 10 -30 10 -29 0
-30 1 -30 50 0 28 -4 50 -10 50 -6 0 -10 -27 -10 -60z" />
        <path
            d="M3766 2188 c-9 -12 -16 -29 -16 -38 0 -30 30 -60 61 -60 16 0 29 5
29 11 0 6 -6 9 -12 6 -26 -9 -58 12 -58 37 0 28 34 58 56 49 8 -3 14 0 14 6 0
21 -58 12 -74 -11z" />
        <path
            d="M3920 2169 c0 -52 15 -79 43 -79 35 0 47 19 45 75 l-1 50 -6 -50 c-5
-45 -8 -50 -31 -50 -23 0 -25 4 -28 48 -4 57 -22 63 -22 6z" />
        <path
            d="M2501 2149 c-13 -28 -20 -53 -17 -56 3 -3 8 2 12 11 8 21 50 21 63
-1 5 -10 12 -15 15 -12 8 7 -34 109 -44 109 -4 0 -17 -23 -29 -51z m39 0 c0
-5 -7 -9 -15 -9 -9 0 -12 6 -9 15 6 15 24 11 24 -6z" />
    </g>
</svg>